<svg xmlns="http://www.w3.org/2000/svg" width="20" height="21" viewBox="132 15 20 21"><g><path d="M150 36h-16c-1.103 0-2-.898-2-2v-9c0-1.103.897-2 2-2h16c1.103 0 2 .897 2 2v9c0 1.102-.897 2-2 2Zm-9.167-5.056c-1.01 0-1.833.686-1.833 1.528 0 .843.823 1.528 1.833 1.528.928 0 1.71-.578 1.82-1.344a.815.815 0 0 0 .014-.153v-4.448c1.657-.315 2.656-.515 3.055-.61.295-.071.611-.305.611-.653v-1.075c0-.395-.308-.717-.686-.717a.666.666 0 0 0-.206.033l-3.514 1.075a.711.711 0 0 0-.482.684v4.24a2.152 2.152 0 0 0-.612-.088Z" fill="#fff" fill-rule="evenodd" /><path d="M135.5 19h13a.5.5 0 0 1 .5.5v1a.5.5 0 0 1-.5.5h-13a.5.5 0 0 1-.5-.5v-1a.5.5 0 0 1 .5-.5z" fill="#fff" fill-rule="evenodd" /><path d="M137.5 15h9a.5.5 0 0 1 .5.5v1a.5.5 0 0 1-.5.5h-9a.5.5 0 0 1-.5-.5v-1a.5.5 0 0 1 .5-.5z" fill="#fff" fill-rule="evenodd" /></g></svg>