<svg xmlns="http://www.w3.org/2000/svg" width="16" height="20" viewBox="20.5 16 16 20"><g data-name="Books"><path d="M35.5 36h-12c-.839 0-1.604-.307-2.155-.865-.545-.552-.845-1.31-.845-2.135V19c0-.825.3-1.584.845-2.135.55-.558 1.316-.865 2.155-.865h12c.636 0 1 .364 1 1v15h-12a1.001 1.001 0 0 0 0 2h12v1c0 .635-.364 1-1 1Z" fill="#fff" fill-rule="evenodd" data-name="Combined Shape"/></g><defs><clipPath id="a"><path d="M15 20H3c-.839 0-1.604-.307-2.155-.865C.3 18.583 0 17.825 0 17V3C0 2.175.3 1.416.845.865 1.395.307 2.161 0 3 0h12c.636 0 1 .364 1 1v15H4a1.001 1.001 0 0 0 0 2h12v1c0 .635-.364 1-1 1Z" data-name="Combined Shape" transform="translate(.5)"/></clipPath></defs></svg>